<mxfile host="app.diagrams.net" modified="2021-04-21T09:12:55.190Z" agent="5.0 (Windows NT 10.0; Win64; x64) AppleWebKit/537.36 (KHTML, like Gecko) Chrome/90.0.4430.85 Safari/537.36" etag="f8QOpXbDaLuv8503gLPY" version="14.5.10" type="github">
  <diagram id="C5RBs43oDa-KdzZeNtuy" name="Page-1">
    <mxGraphModel dx="1422" dy="762" grid="1" gridSize="10" guides="1" tooltips="1" connect="1" arrows="1" fold="1" page="1" pageScale="1" pageWidth="827" pageHeight="1169" math="0" shadow="0">
      <root>
        <mxCell id="WIyWlLk6GJQsqaUBKTNV-0" />
        <mxCell id="WIyWlLk6GJQsqaUBKTNV-1" parent="WIyWlLk6GJQsqaUBKTNV-0" />
        <mxCell id="MDOAfQas6G3tkR97Fyb6-2" value="" style="edgeStyle=orthogonalEdgeStyle;rounded=0;orthogonalLoop=1;jettySize=auto;html=1;" edge="1" parent="WIyWlLk6GJQsqaUBKTNV-1" source="MDOAfQas6G3tkR97Fyb6-0" target="MDOAfQas6G3tkR97Fyb6-1">
          <mxGeometry relative="1" as="geometry" />
        </mxCell>
        <mxCell id="MDOAfQas6G3tkR97Fyb6-0" value="Roger komt op website" style="rounded=1;whiteSpace=wrap;html=1;" vertex="1" parent="WIyWlLk6GJQsqaUBKTNV-1">
          <mxGeometry x="354" y="30" width="120" height="60" as="geometry" />
        </mxCell>
        <mxCell id="MDOAfQas6G3tkR97Fyb6-4" value="" style="edgeStyle=orthogonalEdgeStyle;rounded=0;orthogonalLoop=1;jettySize=auto;html=1;startArrow=none;" edge="1" parent="WIyWlLk6GJQsqaUBKTNV-1" source="MDOAfQas6G3tkR97Fyb6-5" target="MDOAfQas6G3tkR97Fyb6-3">
          <mxGeometry relative="1" as="geometry" />
        </mxCell>
        <mxCell id="MDOAfQas6G3tkR97Fyb6-8" value="" style="edgeStyle=orthogonalEdgeStyle;rounded=0;orthogonalLoop=1;jettySize=auto;html=1;startArrow=none;" edge="1" parent="WIyWlLk6GJQsqaUBKTNV-1" source="MDOAfQas6G3tkR97Fyb6-9" target="MDOAfQas6G3tkR97Fyb6-15">
          <mxGeometry relative="1" as="geometry">
            <mxPoint x="414" y="320" as="targetPoint" />
          </mxGeometry>
        </mxCell>
        <mxCell id="MDOAfQas6G3tkR97Fyb6-1" value="Tutorial?" style="rhombus;whiteSpace=wrap;html=1;rounded=1;" vertex="1" parent="WIyWlLk6GJQsqaUBKTNV-1">
          <mxGeometry x="374" y="160" width="80" height="80" as="geometry" />
        </mxCell>
        <mxCell id="MDOAfQas6G3tkR97Fyb6-13" style="edgeStyle=orthogonalEdgeStyle;rounded=0;orthogonalLoop=1;jettySize=auto;html=1;exitX=0.5;exitY=1;exitDx=0;exitDy=0;entryX=1;entryY=0.5;entryDx=0;entryDy=0;" edge="1" parent="WIyWlLk6GJQsqaUBKTNV-1" source="MDOAfQas6G3tkR97Fyb6-3" target="MDOAfQas6G3tkR97Fyb6-15">
          <mxGeometry relative="1" as="geometry">
            <mxPoint x="474" y="350" as="targetPoint" />
          </mxGeometry>
        </mxCell>
        <mxCell id="MDOAfQas6G3tkR97Fyb6-3" value="Spreek tutorial uit" style="whiteSpace=wrap;html=1;rounded=1;" vertex="1" parent="WIyWlLk6GJQsqaUBKTNV-1">
          <mxGeometry x="580" y="170" width="120" height="60" as="geometry" />
        </mxCell>
        <mxCell id="MDOAfQas6G3tkR97Fyb6-5" value="Ja" style="text;html=1;strokeColor=none;fillColor=none;align=center;verticalAlign=middle;whiteSpace=wrap;rounded=0;" vertex="1" parent="WIyWlLk6GJQsqaUBKTNV-1">
          <mxGeometry x="480" y="190" width="40" height="20" as="geometry" />
        </mxCell>
        <mxCell id="MDOAfQas6G3tkR97Fyb6-6" value="" style="edgeStyle=orthogonalEdgeStyle;rounded=0;orthogonalLoop=1;jettySize=auto;html=1;endArrow=none;" edge="1" parent="WIyWlLk6GJQsqaUBKTNV-1" source="MDOAfQas6G3tkR97Fyb6-1" target="MDOAfQas6G3tkR97Fyb6-5">
          <mxGeometry relative="1" as="geometry">
            <mxPoint x="454" y="200" as="sourcePoint" />
            <mxPoint x="580" y="200" as="targetPoint" />
          </mxGeometry>
        </mxCell>
        <mxCell id="MDOAfQas6G3tkR97Fyb6-9" value="nee" style="text;html=1;strokeColor=none;fillColor=none;align=center;verticalAlign=middle;whiteSpace=wrap;rounded=0;" vertex="1" parent="WIyWlLk6GJQsqaUBKTNV-1">
          <mxGeometry x="394" y="260" width="40" height="20" as="geometry" />
        </mxCell>
        <mxCell id="MDOAfQas6G3tkR97Fyb6-11" value="" style="edgeStyle=orthogonalEdgeStyle;rounded=0;orthogonalLoop=1;jettySize=auto;html=1;endArrow=none;" edge="1" parent="WIyWlLk6GJQsqaUBKTNV-1" source="MDOAfQas6G3tkR97Fyb6-1" target="MDOAfQas6G3tkR97Fyb6-9">
          <mxGeometry relative="1" as="geometry">
            <mxPoint x="414" y="240" as="sourcePoint" />
            <mxPoint x="414" y="330" as="targetPoint" />
          </mxGeometry>
        </mxCell>
        <mxCell id="MDOAfQas6G3tkR97Fyb6-14" value="&lt;h1&gt;Audio boeken&lt;/h1&gt;" style="text;html=1;strokeColor=none;fillColor=none;spacing=5;spacingTop=-20;whiteSpace=wrap;overflow=hidden;rounded=0;" vertex="1" parent="WIyWlLk6GJQsqaUBKTNV-1">
          <mxGeometry x="20" y="10" width="190" height="40" as="geometry" />
        </mxCell>
        <mxCell id="MDOAfQas6G3tkR97Fyb6-24" value="" style="edgeStyle=orthogonalEdgeStyle;rounded=0;orthogonalLoop=1;jettySize=auto;html=1;startArrow=none;" edge="1" parent="WIyWlLk6GJQsqaUBKTNV-1" source="MDOAfQas6G3tkR97Fyb6-25">
          <mxGeometry relative="1" as="geometry">
            <mxPoint x="414" y="500" as="targetPoint" />
          </mxGeometry>
        </mxCell>
        <mxCell id="MDOAfQas6G3tkR97Fyb6-32" value="" style="edgeStyle=orthogonalEdgeStyle;rounded=0;orthogonalLoop=1;jettySize=auto;html=1;" edge="1" parent="WIyWlLk6GJQsqaUBKTNV-1" source="MDOAfQas6G3tkR97Fyb6-15" target="MDOAfQas6G3tkR97Fyb6-21">
          <mxGeometry relative="1" as="geometry" />
        </mxCell>
        <mxCell id="MDOAfQas6G3tkR97Fyb6-15" value="Keuzemenu" style="rhombus;whiteSpace=wrap;html=1;rounded=1;" vertex="1" parent="WIyWlLk6GJQsqaUBKTNV-1">
          <mxGeometry x="374" y="320" width="80" height="80" as="geometry" />
        </mxCell>
        <mxCell id="MDOAfQas6G3tkR97Fyb6-35" style="edgeStyle=orthogonalEdgeStyle;rounded=0;orthogonalLoop=1;jettySize=auto;html=1;" edge="1" parent="WIyWlLk6GJQsqaUBKTNV-1" source="MDOAfQas6G3tkR97Fyb6-21" target="MDOAfQas6G3tkR97Fyb6-34">
          <mxGeometry relative="1" as="geometry" />
        </mxCell>
        <mxCell id="MDOAfQas6G3tkR97Fyb6-21" value="favo boeken" style="text;html=1;strokeColor=none;fillColor=none;align=center;verticalAlign=middle;whiteSpace=wrap;rounded=0;" vertex="1" parent="WIyWlLk6GJQsqaUBKTNV-1">
          <mxGeometry x="250" y="350" width="80" height="20" as="geometry" />
        </mxCell>
        <mxCell id="MDOAfQas6G3tkR97Fyb6-25" value="zoeken op categorie" style="text;html=1;strokeColor=none;fillColor=none;align=center;verticalAlign=middle;whiteSpace=wrap;rounded=0;" vertex="1" parent="WIyWlLk6GJQsqaUBKTNV-1">
          <mxGeometry x="371" y="420" width="86" height="40" as="geometry" />
        </mxCell>
        <mxCell id="MDOAfQas6G3tkR97Fyb6-26" value="" style="edgeStyle=orthogonalEdgeStyle;rounded=0;orthogonalLoop=1;jettySize=auto;html=1;endArrow=none;" edge="1" parent="WIyWlLk6GJQsqaUBKTNV-1" source="MDOAfQas6G3tkR97Fyb6-15" target="MDOAfQas6G3tkR97Fyb6-25">
          <mxGeometry relative="1" as="geometry">
            <mxPoint x="414" y="400" as="sourcePoint" />
            <mxPoint x="414" y="490" as="targetPoint" />
          </mxGeometry>
        </mxCell>
        <mxCell id="MDOAfQas6G3tkR97Fyb6-38" value="" style="edgeStyle=orthogonalEdgeStyle;rounded=0;orthogonalLoop=1;jettySize=auto;html=1;" edge="1" parent="WIyWlLk6GJQsqaUBKTNV-1" source="MDOAfQas6G3tkR97Fyb6-34" target="MDOAfQas6G3tkR97Fyb6-37">
          <mxGeometry relative="1" as="geometry" />
        </mxCell>
        <mxCell id="MDOAfQas6G3tkR97Fyb6-39" style="edgeStyle=orthogonalEdgeStyle;rounded=0;orthogonalLoop=1;jettySize=auto;html=1;exitX=0.5;exitY=1;exitDx=0;exitDy=0;" edge="1" parent="WIyWlLk6GJQsqaUBKTNV-1" source="MDOAfQas6G3tkR97Fyb6-34" target="MDOAfQas6G3tkR97Fyb6-37">
          <mxGeometry relative="1" as="geometry" />
        </mxCell>
        <mxCell id="MDOAfQas6G3tkR97Fyb6-34" value="kiest boek" style="html=1;strokeWidth=1;shape=manualInput;whiteSpace=wrap;rounded=1;size=26;arcSize=11;" vertex="1" parent="WIyWlLk6GJQsqaUBKTNV-1">
          <mxGeometry x="240" y="600" width="100" height="60" as="geometry" />
        </mxCell>
        <mxCell id="MDOAfQas6G3tkR97Fyb6-41" style="edgeStyle=orthogonalEdgeStyle;rounded=0;orthogonalLoop=1;jettySize=auto;html=1;entryX=1;entryY=0.5;entryDx=0;entryDy=0;exitX=0.5;exitY=1;exitDx=0;exitDy=0;" edge="1" parent="WIyWlLk6GJQsqaUBKTNV-1" source="MDOAfQas6G3tkR97Fyb6-36" target="MDOAfQas6G3tkR97Fyb6-34">
          <mxGeometry relative="1" as="geometry" />
        </mxCell>
        <mxCell id="MDOAfQas6G3tkR97Fyb6-36" value="kiest categorie" style="html=1;strokeWidth=1;shape=manualInput;whiteSpace=wrap;rounded=1;size=26;arcSize=11;" vertex="1" parent="WIyWlLk6GJQsqaUBKTNV-1">
          <mxGeometry x="364" y="500" width="100" height="60" as="geometry" />
        </mxCell>
        <mxCell id="MDOAfQas6G3tkR97Fyb6-43" style="edgeStyle=orthogonalEdgeStyle;rounded=0;orthogonalLoop=1;jettySize=auto;html=1;entryX=0.5;entryY=0;entryDx=0;entryDy=0;startArrow=none;" edge="1" parent="WIyWlLk6GJQsqaUBKTNV-1" source="MDOAfQas6G3tkR97Fyb6-44" target="MDOAfQas6G3tkR97Fyb6-42">
          <mxGeometry relative="1" as="geometry" />
        </mxCell>
        <mxCell id="MDOAfQas6G3tkR97Fyb6-47" style="edgeStyle=orthogonalEdgeStyle;rounded=0;orthogonalLoop=1;jettySize=auto;html=1;entryX=0;entryY=0.5;entryDx=0;entryDy=0;exitX=0.5;exitY=1;exitDx=0;exitDy=0;startArrow=none;" edge="1" parent="WIyWlLk6GJQsqaUBKTNV-1" source="MDOAfQas6G3tkR97Fyb6-48" target="MDOAfQas6G3tkR97Fyb6-42">
          <mxGeometry relative="1" as="geometry" />
        </mxCell>
        <mxCell id="MDOAfQas6G3tkR97Fyb6-37" value="afspelen" style="rhombus;whiteSpace=wrap;html=1;rounded=1;strokeWidth=1;arcSize=11;" vertex="1" parent="WIyWlLk6GJQsqaUBKTNV-1">
          <mxGeometry x="250" y="730" width="80" height="80" as="geometry" />
        </mxCell>
        <mxCell id="MDOAfQas6G3tkR97Fyb6-42" value="boek afspelen" style="rounded=1;whiteSpace=wrap;html=1;strokeWidth=1;" vertex="1" parent="WIyWlLk6GJQsqaUBKTNV-1">
          <mxGeometry x="337" y="910" width="120" height="60" as="geometry" />
        </mxCell>
        <mxCell id="MDOAfQas6G3tkR97Fyb6-44" value="vanaf begin" style="text;html=1;strokeColor=none;fillColor=none;align=center;verticalAlign=middle;whiteSpace=wrap;rounded=0;" vertex="1" parent="WIyWlLk6GJQsqaUBKTNV-1">
          <mxGeometry x="362" y="820" width="70" height="20" as="geometry" />
        </mxCell>
        <mxCell id="MDOAfQas6G3tkR97Fyb6-45" value="" style="edgeStyle=orthogonalEdgeStyle;rounded=0;orthogonalLoop=1;jettySize=auto;html=1;entryX=0.5;entryY=0;entryDx=0;entryDy=0;endArrow=none;" edge="1" parent="WIyWlLk6GJQsqaUBKTNV-1" source="MDOAfQas6G3tkR97Fyb6-37" target="MDOAfQas6G3tkR97Fyb6-44">
          <mxGeometry relative="1" as="geometry">
            <mxPoint x="330" y="770" as="sourcePoint" />
            <mxPoint x="397" y="850" as="targetPoint" />
          </mxGeometry>
        </mxCell>
        <mxCell id="MDOAfQas6G3tkR97Fyb6-48" value="doorgaan op vorig punt" style="text;html=1;strokeColor=none;fillColor=none;align=center;verticalAlign=middle;whiteSpace=wrap;rounded=0;" vertex="1" parent="WIyWlLk6GJQsqaUBKTNV-1">
          <mxGeometry x="255" y="880" width="70" height="20" as="geometry" />
        </mxCell>
        <mxCell id="MDOAfQas6G3tkR97Fyb6-50" value="" style="edgeStyle=orthogonalEdgeStyle;rounded=0;orthogonalLoop=1;jettySize=auto;html=1;exitX=0.5;exitY=1;exitDx=0;exitDy=0;endArrow=none;entryX=0.5;entryY=0;entryDx=0;entryDy=0;" edge="1" parent="WIyWlLk6GJQsqaUBKTNV-1" source="MDOAfQas6G3tkR97Fyb6-37" target="MDOAfQas6G3tkR97Fyb6-48">
          <mxGeometry relative="1" as="geometry">
            <mxPoint x="290" y="810" as="sourcePoint" />
            <mxPoint x="290" y="850" as="targetPoint" />
          </mxGeometry>
        </mxCell>
      </root>
    </mxGraphModel>
  </diagram>
</mxfile>
